<svg width="14" height="14" viewBox="0 0 14 14" fill="none" xmlns="http://www.w3.org/2000/svg">
<path d="M2.33337 12.25C1.84726 12.25 1.43407 12.0799 1.09379 11.7396C0.753513 11.3993 0.583374 10.9861 0.583374 10.5C0.583374 10.0139 0.753513 9.60069 1.09379 9.26042C1.43407 8.92014 1.84726 8.75 2.33337 8.75C2.44443 8.75 2.55241 8.75972 2.6573 8.77917C2.76218 8.79861 2.8681 8.82778 2.97504 8.86667L5.30837 5.67292C5.11393 5.45903 4.95837 5.2184 4.84171 4.95104C4.72504 4.68368 4.66671 4.39444 4.66671 4.08333C4.66671 3.44167 4.89518 2.89236 5.35212 2.43542C5.80907 1.97847 6.35837 1.75 7.00004 1.75C7.64171 1.75 8.19101 1.97847 8.64796 2.43542C9.1049 2.89236 9.33337 3.44167 9.33337 4.08333C9.33337 4.39444 9.27557 4.68332 9.15995 4.94995C9.04433 5.21657 8.88825 5.45756 8.69171 5.67292L11.025 8.88125C11.132 8.83264 11.2365 8.79861 11.3386 8.77917C11.4407 8.75972 11.55 8.75 11.6667 8.75C12.1528 8.75 12.566 8.92014 12.9063 9.26042C13.2466 9.60069 13.4167 10.0139 13.4167 10.5C13.4167 10.9861 13.2466 11.3993 12.9063 11.7396C12.566 12.0799 12.1528 12.25 11.6667 12.25C11.1806 12.25 10.7674 12.0799 10.4271 11.7396C10.0868 11.3993 9.91671 10.9861 9.91671 10.5C9.91671 10.2861 9.95317 10.0868 10.0261 9.90208C10.099 9.71736 10.1987 9.54722 10.325 9.39167L7.99171 6.19792C7.90421 6.24653 7.81428 6.28299 7.72192 6.30729C7.62955 6.3316 7.53476 6.3532 7.43754 6.37209V8.80833C7.81671 8.90556 8.13025 9.10972 8.37817 9.42083C8.62608 9.73194 8.75004 10.0917 8.75004 10.5C8.75004 10.9861 8.5799 11.3993 8.23962 11.7396C7.89935 12.0799 7.48615 12.25 7.00004 12.25C6.51393 12.25 6.10074 12.0799 5.76046 11.7396C5.42018 11.3993 5.25004 10.9861 5.25004 10.5C5.25004 10.0917 5.374 9.73194 5.62192 9.42083C5.86983 9.10972 6.18337 8.90556 6.56254 8.80833V6.37209C6.46532 6.3532 6.37053 6.3316 6.27817 6.30729C6.1858 6.28299 6.09587 6.24653 6.00837 6.19792L3.67504 9.39167C3.80143 9.54722 3.90108 9.71736 3.974 9.90208C4.04692 10.0868 4.08337 10.2861 4.08337 10.5C4.08337 10.9861 3.91324 11.3993 3.57296 11.7396C3.23268 12.0799 2.81949 12.25 2.33337 12.25ZM2.33337 11.375C2.58129 11.375 2.7891 11.2911 2.95681 11.1234C3.12452 10.9557 3.20837 10.7479 3.20837 10.5C3.20837 10.2521 3.12452 10.0443 2.95681 9.87656C2.7891 9.70885 2.58129 9.625 2.33337 9.625C2.08546 9.625 1.87764 9.70885 1.70994 9.87656C1.54223 10.0443 1.45837 10.2521 1.45837 10.5C1.45837 10.7479 1.54223 10.9557 1.70994 11.1234C1.87764 11.2911 2.08546 11.375 2.33337 11.375ZM7.00004 11.375C7.24796 11.375 7.45577 11.2911 7.62348 11.1234C7.79119 10.9557 7.87504 10.7479 7.87504 10.5C7.87504 10.2521 7.79119 10.0443 7.62348 9.87656C7.45577 9.70885 7.24796 9.625 7.00004 9.625C6.75212 9.625 6.54431 9.70885 6.3766 9.87656C6.20889 10.0443 6.12504 10.2521 6.12504 10.5C6.12504 10.7479 6.20889 10.9557 6.3766 11.1234C6.54431 11.2911 6.75212 11.375 7.00004 11.375ZM11.6667 11.375C11.9146 11.375 12.1224 11.2911 12.2901 11.1234C12.4579 10.9557 12.5417 10.7479 12.5417 10.5C12.5417 10.2521 12.4579 10.0443 12.2901 9.87656C12.1224 9.70885 11.9146 9.625 11.6667 9.625C11.4188 9.625 11.211 9.70885 11.0433 9.87656C10.8756 10.0443 10.7917 10.2521 10.7917 10.5C10.7917 10.7479 10.8756 10.9557 11.0433 11.1234C11.211 11.2911 11.4188 11.375 11.6667 11.375ZM7.00004 5.54167C7.40837 5.54167 7.75351 5.40069 8.03546 5.11875C8.3174 4.83681 8.45837 4.49167 8.45837 4.08333C8.45837 3.675 8.3174 3.32986 8.03546 3.04792C7.75351 2.76597 7.40837 2.625 7.00004 2.625C6.59171 2.625 6.24657 2.76597 5.96462 3.04792C5.68268 3.32986 5.54171 3.675 5.54171 4.08333C5.54171 4.49167 5.68268 4.83681 5.96462 5.11875C6.24657 5.40069 6.59171 5.54167 7.00004 5.54167Z" fill="#99CE77"/>
</svg>
