<svg width="14" height="14" viewBox="0 0 14 14" fill="none" xmlns="http://www.w3.org/2000/svg">
<path d="M8.31249 9.33337H9.18749V8.02087H10.5V7.14587H9.18749V5.83337H8.31249V7.14587H6.99999V8.02087H8.31249V9.33337ZM2.05624 11.6667C1.82291 11.6667 1.61874 11.5768 1.44374 11.3969C1.26874 11.2171 1.18124 11.0153 1.18124 10.7917V3.20837C1.18124 2.98476 1.26874 2.78303 1.44374 2.60317C1.61874 2.4233 1.82291 2.33337 2.05624 2.33337H6.13958L7.01458 3.20837H11.9729C12.1965 3.20837 12.3983 3.2983 12.5781 3.47817C12.758 3.65803 12.8479 3.85976 12.8479 4.08337V10.7917C12.8479 11.0153 12.758 11.2171 12.5781 11.3969C12.3983 11.5768 12.1965 11.6667 11.9729 11.6667H2.05624ZM2.05624 3.20837V10.7917H11.9729V4.08337H6.64999L5.77499 3.20837H2.05624Z" fill="white"/>
</svg>
