<svg width="14" height="14" viewBox="0 0 14 14" fill="none" xmlns="http://www.w3.org/2000/svg">
<path d="M12.1188 11.9145L8.60418 8.39993C8.31252 8.65271 7.97224 8.84959 7.58335 8.99056C7.19446 9.13153 6.78127 9.20202 6.34377 9.20202C5.76043 9.20202 5.22328 9.08535 4.73231 8.85202C4.24134 8.61868 3.82571 8.30271 3.48543 7.9041L4.11252 7.27702C4.37502 7.59785 4.69828 7.85306 5.08231 8.04264C5.46634 8.23223 5.88196 8.32702 6.32918 8.32702C7.11668 8.32702 7.78752 8.0475 8.34168 7.48848C8.89585 6.92945 9.17293 6.25618 9.17293 5.46868C9.17293 4.68118 8.89585 4.00792 8.34168 3.44889C7.78752 2.88987 7.11668 2.61035 6.32918 2.61035C5.53196 2.61035 4.85384 2.88987 4.29481 3.44889C3.73578 4.00792 3.45627 4.68118 3.45627 5.46868L4.37502 4.52077L5.0021 5.14785L3.0771 7.07285L1.1521 5.14785L1.77918 4.52077L2.59585 5.33743C2.63474 4.33605 3.00904 3.48535 3.71877 2.78535C4.42849 2.08535 5.29863 1.73535 6.32918 1.73535C7.35974 1.73535 8.23717 2.09993 8.96147 2.8291C9.68578 3.55827 10.0479 4.43813 10.0479 5.46868C10.0479 5.88674 9.97988 6.29021 9.84377 6.6791C9.70765 7.06799 9.50349 7.43257 9.23127 7.77285L12.7604 11.2729L12.1188 11.9145Z" fill="white"/>
</svg>
