<svg width="14" height="14" viewBox="0 0 14 14" fill="none" xmlns="http://www.w3.org/2000/svg">
<path d="M4.1837 3.54369C3.98068 3.54369 3.80868 3.61475 3.66771 3.75687C3.52674 3.89898 3.45625 4.07155 3.45625 4.27458C3.45625 4.4776 3.52731 4.6496 3.66943 4.79057C3.81154 4.93154 3.98411 5.00203 4.18714 5.00203C4.39016 5.00203 4.56215 4.93097 4.70313 4.78885C4.8441 4.64674 4.91458 4.47417 4.91458 4.27114C4.91458 4.06812 4.84352 3.89612 4.7014 3.75515C4.55929 3.61418 4.38672 3.54369 4.1837 3.54369ZM4.1837 9.58119C3.98068 9.58119 3.80868 9.65225 3.66771 9.79437C3.52674 9.93648 3.45625 10.1091 3.45625 10.3121C3.45625 10.5151 3.52731 10.6871 3.66943 10.8281C3.81154 10.969 3.98411 11.0395 4.18714 11.0395C4.39016 11.0395 4.56215 10.9685 4.70313 10.8263C4.8441 10.6842 4.91458 10.5117 4.91458 10.3086C4.91458 10.1056 4.84352 9.93362 4.7014 9.79265C4.55929 9.65168 4.38672 9.58119 4.1837 9.58119ZM2.24583 1.76453H11.7396C11.8951 1.76453 12.0191 1.81071 12.1115 1.90307C12.2038 1.99543 12.25 2.12091 12.25 2.27951V6.19786C12.25 6.36727 12.2038 6.50928 12.1115 6.62388C12.0191 6.73848 11.8951 6.79578 11.7396 6.79578H2.24583C2.1 6.79578 1.9809 6.73848 1.88854 6.62388C1.79618 6.50928 1.75 6.36727 1.75 6.19786V2.27951C1.75 2.12091 1.79618 1.99543 1.88854 1.90307C1.9809 1.81071 2.1 1.76453 2.24583 1.76453ZM2.625 2.63953V5.92078H11.375V2.63953H2.625ZM2.24583 7.78744H11.6813C11.8271 7.78744 11.9583 7.84821 12.075 7.96973C12.1917 8.09126 12.25 8.22994 12.25 8.38575V12.2354C12.25 12.4298 12.1917 12.5781 12.075 12.6802C11.9583 12.7822 11.8271 12.8333 11.6813 12.8333H2.31875C2.16319 12.8333 2.02951 12.7822 1.91771 12.6802C1.8059 12.5781 1.75 12.4298 1.75 12.2354V8.38575C1.75 8.22994 1.79618 8.09126 1.88854 7.96973C1.9809 7.84821 2.1 7.78744 2.24583 7.78744ZM2.625 8.66244V11.9583H11.375V8.66244H2.625Z" fill="white"/>
</svg>
