<svg width="18" height="19" viewBox="0 0 18 19" fill="none" xmlns="http://www.w3.org/2000/svg">
<path d="M5.37902 5.0563C5.118 5.0563 4.89686 5.14766 4.71561 5.33039C4.53436 5.5131 4.44373 5.73497 4.44373 5.99601C4.44373 6.25704 4.5351 6.47817 4.71782 6.65942C4.90053 6.84067 5.12241 6.9313 5.38345 6.9313C5.64447 6.9313 5.86561 6.83994 6.04686 6.65721C6.22811 6.4745 6.31873 6.25262 6.31873 5.99159C6.31873 5.73056 6.22737 5.50942 6.04465 5.32817C5.86193 5.14692 5.64006 5.0563 5.37902 5.0563ZM5.37902 12.8188C5.118 12.8188 4.89686 12.9102 4.71561 13.0929C4.53436 13.2756 4.44373 13.4975 4.44373 13.7585C4.44373 14.0195 4.5351 14.2407 4.71782 14.4219C4.90053 14.6032 5.12241 14.6938 5.38345 14.6938C5.64447 14.6938 5.86561 14.6024 6.04686 14.4197C6.22811 14.237 6.31873 14.0151 6.31873 13.7541C6.31873 13.4931 6.22737 13.2719 6.04465 13.0907C5.86193 12.9094 5.64006 12.8188 5.37902 12.8188ZM2.88748 2.7688H15.0937C15.2937 2.7688 15.4531 2.82817 15.5719 2.94692C15.6906 3.06567 15.75 3.22701 15.75 3.43092V8.4688C15.75 8.68661 15.6906 8.86919 15.5719 9.01654C15.4531 9.16388 15.2937 9.23755 15.0937 9.23755H2.88748C2.69998 9.23755 2.54686 9.16388 2.42811 9.01654C2.30936 8.86919 2.24998 8.68661 2.24998 8.4688V3.43092C2.24998 3.22701 2.30936 3.06567 2.42811 2.94692C2.54686 2.82817 2.69998 2.7688 2.88748 2.7688ZM3.37498 3.8938V8.11255H14.625V3.8938H3.37498ZM2.88748 10.5125H15.0187C15.2062 10.5125 15.375 10.5907 15.525 10.7469C15.675 10.9032 15.75 11.0815 15.75 11.2818V16.2313C15.75 16.4813 15.675 16.6719 15.525 16.8032C15.375 16.9344 15.2062 17 15.0187 17H2.98123C2.78123 17 2.60936 16.9344 2.46561 16.8032C2.32186 16.6719 2.24998 16.4813 2.24998 16.2313V11.2818C2.24998 11.0815 2.30936 10.9032 2.42811 10.7469C2.54686 10.5907 2.69998 10.5125 2.88748 10.5125ZM3.37498 11.6375V15.875H14.625V11.6375H3.37498Z" fill="#100F30"/>
</svg>
