<svg width="14" height="14" viewBox="0 0 14 14" fill="none" xmlns="http://www.w3.org/2000/svg">
<path d="M2.04163 11.6667C1.81801 11.6667 1.61628 11.5768 1.43642 11.3969C1.25656 11.2171 1.16663 11.0153 1.16663 10.7917V3.20837C1.16663 2.98476 1.25656 2.78303 1.43642 2.60317C1.61628 2.4233 1.81801 2.33337 2.04163 2.33337H6.13954L7.01454 3.20837H11.9583C12.1819 3.20837 12.3836 3.2983 12.5635 3.47817C12.7434 3.65803 12.8333 3.85976 12.8333 4.08337H6.63538L5.76038 3.20837H2.04163V10.7917L3.52913 4.95837H13.7083L12.1479 10.9959C12.0895 11.2292 11.9826 11.3993 11.827 11.5063C11.6715 11.6132 11.4722 11.6667 11.2291 11.6667H2.04163ZM2.96038 10.7917H11.302L12.527 5.83337H4.18538L2.96038 10.7917Z" fill="white"/>
</svg>
